<svg version="1.1" id="Capa_1"
	xmlns="http://www.w3.org/2000/svg"
	xmlns:xlink="http://www.w3.org/1999/xlink" x="0px" y="0px" width="1200px" height="1200px" viewBox="0 0 1200 1200" enable-background="new 0 0 1200 1200" xml:space="preserve">
	<path fill="#1D4ED8" d="M1149.023,172.534c0.055-0.179,0.133-0.325,0.18-0.516c0.32-1.021,0.523-2.052,0.656-3.106
	c0.039-0.258,0.047-0.526,0.07-0.784c0.07-0.864,0.094-1.728,0.047-2.591c-0.023-0.258-0.016-0.527-0.031-0.773
	c-0.094-1.055-0.297-2.086-0.578-3.117c-0.063-0.235-0.164-0.505-0.242-0.74c-0.273-0.897-0.633-1.761-1.047-2.624
	c-0.063-0.146-0.102-0.292-0.164-0.426c-0.039-0.079-0.078-0.135-0.125-0.202c-0.055-0.101-0.078-0.19-0.133-0.28
	c-0.484-0.875-1.055-1.683-1.672-2.456c-0.18-0.235-0.375-0.426-0.547-0.65c-0.586-0.661-1.195-1.278-1.844-1.85
	c-0.203-0.157-0.383-0.359-0.594-0.517c-0.805-0.65-1.672-1.222-2.586-1.737c-0.227-0.124-0.461-0.236-0.688-0.337
	c-0.789-0.393-1.594-0.729-2.414-1.009c-0.242-0.102-0.453-0.18-0.695-0.247c-1.008-0.291-2.047-0.516-3.102-0.65
	c-0.211-0.033-0.414-0.033-0.633-0.045c-0.531-0.045-1.086-0.123-1.633-0.123H68.734c-0.563,0-1.109,0.078-1.648,0.123
	c-0.211,0.012-0.391,0.012-0.594,0.045c-1.063,0.123-2.117,0.337-3.125,0.662c-0.242,0.066-0.438,0.146-0.68,0.235
	c-0.813,0.269-1.648,0.628-2.43,1.021c-0.227,0.111-0.461,0.224-0.672,0.336c-0.906,0.516-1.781,1.099-2.594,1.738
	c-0.211,0.157-0.391,0.358-0.602,0.527c-0.648,0.571-1.242,1.188-1.828,1.827c-0.195,0.225-0.383,0.427-0.563,0.662
	c-0.602,0.773-1.18,1.581-1.656,2.455c-0.063,0.102-0.078,0.191-0.141,0.28c-0.039,0.067-0.086,0.124-0.117,0.202
	c-0.07,0.135-0.102,0.28-0.172,0.426c-0.422,0.853-0.773,1.716-1.039,2.624c-0.078,0.235-0.18,0.505-0.25,0.74
	c-0.266,1.043-0.469,2.074-0.57,3.117c-0.023,0.258-0.023,0.517-0.031,0.774c-0.047,0.852-0.023,1.715,0.031,2.59
	c0.023,0.258,0.031,0.527,0.063,0.785c0.141,1.054,0.352,2.086,0.68,3.106c0.039,0.179,0.117,0.336,0.18,0.516
	c0.289,0.852,0.633,1.682,1.039,2.5c0.133,0.258,0.258,0.505,0.406,0.752c0.102,0.19,0.188,0.403,0.313,0.583l531.258,866.885
	c0.086,0.146,0.203,0.28,0.289,0.426c0.148,0.202,0.281,0.404,0.438,0.617c0.539,0.762,1.133,1.479,1.758,2.152
	c0.117,0.124,0.227,0.247,0.336,0.382c0.766,0.729,1.586,1.401,2.445,2.007c0.203,0.146,0.43,0.258,0.633,0.403
	c0.773,0.505,1.594,0.942,2.422,1.313c0.18,0.078,0.32,0.18,0.492,0.247c0.977,0.403,2.008,0.706,3.039,0.941
	c0.242,0.056,0.523,0.101,0.797,0.157c1.094,0.213,2.211,0.336,3.352,0.336s2.242-0.134,3.344-0.336
	c0.266-0.057,0.547-0.102,0.805-0.157c1.031-0.247,2.055-0.538,3.031-0.941c0.18-0.067,0.336-0.169,0.5-0.247
	c0.844-0.37,1.664-0.808,2.438-1.313c0.195-0.146,0.414-0.258,0.625-0.403c0.867-0.616,1.672-1.267,2.43-2.007
	c0.125-0.135,0.227-0.258,0.352-0.382c0.641-0.673,1.219-1.379,1.758-2.152c0.156-0.213,0.305-0.415,0.438-0.617
	c0.102-0.146,0.227-0.28,0.305-0.426l531.242-866.885c0.125-0.18,0.203-0.393,0.32-0.583c0.133-0.247,0.266-0.494,0.391-0.752
	C1148.383,174.228,1148.734,173.387,1149.023,172.534z M599.984,423.21L145.211,185.34h909.57L599.984,423.21z M583.531,457.029
	c-1.438,2.635-2.32,5.641-2.32,8.858v500.925L120.305,214.719L583.531,457.029z M616.453,457.019l463.227-242.3L618.789,966.813
	V465.888C618.797,462.67,617.898,459.664,616.453,457.019z"/>
</svg>
